<?xml version="1.0" encoding="UTF-8" standalone="no"?><!-- Generator: Gravit.io --><svg xmlns="http://www.w3.org/2000/svg" xmlns:xlink="http://www.w3.org/1999/xlink" style="isolation:isolate" viewBox="0 0 256 256" width="256pt" height="256pt"><defs><clipPath id="_clipPath_jNBQhjCHsLeuAp7Ur9TgQjtCVtZjnTqI"><rect width="256" height="256"/></clipPath></defs><g clip-path="url(#_clipPath_jNBQhjCHsLeuAp7Ur9TgQjtCVtZjnTqI)"><g style="isolation:isolate" filter="url(#QtSwKb76a0HM3R7V1gAH6GvENr8iuxR1)"><circle  cx="47.5" cy="45.5" r="12.5" fill="rgb(255,255,255)" stroke-width="1" stroke="rgb(46,46,46)" stroke-linejoin="miter" stroke-linecap="square" stroke-miterlimit="3"/><circle  cx="80.49999999999994" cy="45.49999999999996" r="12.5" fill="rgb(255,255,255)" stroke-width="1" stroke="rgb(46,46,46)" stroke-linejoin="miter" stroke-linecap="square" stroke-miterlimit="3"/><path d=" M 24.5 79.631 L 24.5 227.49 C 24.5 227.49 24.5 227.49 24.5 227.49 C 24.5 228.56 24.92 229.58 25.67 230.33 C 26.42 231.08 27.44 231.5 28.51 231.5 L 227.48 231.5 C 227.49 231.5 227.49 231.5 227.49 231.5 C 228.55 231.5 229.57 231.08 230.32 230.33 C 231.08 229.58 231.5 228.55 231.5 227.49 L 231.5 227.49 L 231.5 80.001 L 24.5 79.631 Z  M 24.5 65.636 L 24.5 28.51 C 24.5 28.51 24.5 28.51 24.5 28.51 C 24.5 27.44 24.92 26.42 25.67 25.67 C 26.42 24.92 27.44 24.5 28.51 24.5 L 227.48 24.5 C 227.49 24.5 227.49 24.5 227.49 24.5 C 228.55 24.5 229.57 24.92 230.32 25.67 C 231.08 26.42 231.5 27.45 231.5 28.51 L 231.5 66.005 L 24.5 65.636 Z  M 244.5 227.5 C 244.5 232.01 242.7 236.33 239.51 239.52 C 236.32 242.71 231.99 244.5 227.48 244.5 L 28.51 244.5 C 28.51 244.5 28.51 244.5 28.51 244.5 C 24 244.5 19.67 242.71 16.48 239.52 C 13.29 236.33 11.5 232 11.5 227.49 L 11.5 28.51 C 11.5 24 13.29 19.67 16.48 16.48 C 19.67 13.29 24 11.5 28.51 11.5 C 28.51 11.5 28.51 11.5 28.51 11.5 L 227.48 11.5 C 231.99 11.5 236.32 13.29 239.51 16.48 C 242.7 19.67 244.5 23.99 244.5 28.5 C 244.5 28.51 244.5 28.51 244.5 28.51 L 244.5 227.49 C 244.5 227.49 244.5 227.49 244.5 227.5 L 244.5 227.5 Z " fill-rule="evenodd" fill="rgb(255,255,255)"  stroke-width="1" stroke="rgb(46,46,46)" stroke-linejoin="miter" stroke-linecap="square" stroke-miterlimit="3"/><rect x="128" y="33" width="92" height="25" transform="matrix(1,0,0,1,0,0)" fill="rgb(255,255,255)"  stroke-width="1" stroke="rgb(46,46,46)" stroke-linejoin="miter" stroke-linecap="square" stroke-miterlimit="2"/><g><path d=" M 50 155 L 95 110 L 104 119 L 68 155 L 104 191 L 95 200 L 50 155 L 50 155 Z  M 206 155 L 161 110 L 152 119 L 188 155 L 152 191 L 161 200 L 206 155 L 206 155 Z  M 138.148 107 L 152.148 107 L 117.852 205 L 103.852 205 L 138.148 107 Z " fill-rule="evenodd" fill="rgb(255,255,255)"  stroke-width="1" stroke="rgb(46,46,46)" stroke-linejoin="round" stroke-linecap="round" stroke-miterlimit="3"/></g></g><defs><filter id="QtSwKb76a0HM3R7V1gAH6GvENr8iuxR1" x="-200%" y="-200%" width="400%" height="400%" filterUnits="objectBoundingBox" color-interpolation-filters="sRGB"><feGaussianBlur xmlns="http://www.w3.org/2000/svg" in="SourceGraphic" stdDeviation="2.146804531419514"/><feOffset xmlns="http://www.w3.org/2000/svg" dx="0" dy="0" result="pf_100_offsetBlur"/><feFlood xmlns="http://www.w3.org/2000/svg" flood-color="#2E2E2E" flood-opacity="1"/><feComposite xmlns="http://www.w3.org/2000/svg" in2="pf_100_offsetBlur" operator="in" result="pf_100_dropShadow"/><feBlend xmlns="http://www.w3.org/2000/svg" in="SourceGraphic" in2="pf_100_dropShadow" mode="normal"/></filter></defs></g></svg>